<mxfile host="Electron" modified="2024-05-27T11:43:04.606Z" agent="Mozilla/5.0 (Windows NT 10.0; Win64; x64) AppleWebKit/537.36 (KHTML, like Gecko) draw.io/24.4.6 Chrome/124.0.6367.207 Electron/30.0.6 Safari/537.36" etag="hRDle-pSOv9WJS99eHlf" version="24.4.6" type="device">
  <diagram name="Seite-1" id="WtsoOcOjxhQSeOk7PNmj">
    <mxGraphModel dx="2074" dy="1196" grid="1" gridSize="10" guides="1" tooltips="1" connect="1" arrows="1" fold="1" page="1" pageScale="1" pageWidth="1600" pageHeight="1200" math="0" shadow="0">
      <root>
        <mxCell id="0" />
        <mxCell id="1" parent="0" />
        <mxCell id="D_jrklBUN8qbvNTyiVxb-1" value="" style="shape=image;verticalLabelPosition=bottom;labelBackgroundColor=default;verticalAlign=top;aspect=fixed;imageAspect=0;image=data:image/png,iVBORw0KGgoAAAANSUhEUgAABHAAAANACAYAAABDq5r5AAAAAXNSR0IArs4c6QAAAARnQU1BAACxjwv8YQUAAAAJcEhZcwAADsIAAA7CARUoSoAAAC/wSURBVHhe7d190J11fefx69xYmTwA0w6LEh+GCTSKwRJWFq204WFBVB4CLcKo24aHUKRpjYIjO4BQWG1FdmGkPKx0AENXbdqO4ti6y7QKgjot8hBY49BUjd2pgCz/xBAZt3L/lutwiIT8Qn7fr9pe5rxemc+cc5/7AT1/vud3XacDAAAAAAAAAAAAAAAAAAAAAAAAAAAAAAAAAAAAAAAAAAAAAAAAAAAAAAAAAAAAAAAAAAAAAAAAAAAAAAAAAAAAAAAAAAAAAAAAAAAAAAAAAAAAAAAAAACAncBFF11UJk8BAAAAGJpzzz237LLLLuWBBx4QcQAAAACG5qGHHiq/8Au/0IebcsQRR0QCzvh3nrtVq1Zt+f1jjz12q+/tscceW74HAAAAQMBb3/rWrULLZz7zmVRomTdvXrnzzju3/G4fcG6++ebU3wIAAABg4vOf//yWcPPs9t1333B06UPNwoULt/o9AQcAAADgp+BVr3rVlnDz3F1++eX9Y7PDDz+8XHrppVv9Th9w+sum5syZUw488MBy6623hv4mAAAAwNS78sortwSb52/33Xcvjz76aP98hzZs2DC+AXL/OHlpGzfddFN58YtfXO69996mvwkAAAAw9R577LFnbyq83a1YsaJ/3KH+5E3LzY9POOGEcvHFFzf9TZ4xM3kEAAAAptBFF13Ubdy4cfJV3U033dTdf//9Owwut9xyS7d8+fLJVy9sNBpNngEAAACwXWvXri0zMzPjUzY72mGHHdY/blf/qVPz58/f5mcef/zxctZZZ5X169ePv7d69eqy6667lnvuuecF/x4AAAAAP2VnnnlmOe2006pR5uMf/3jZf//9S//x4q973evcxBgAAAAAAAAAAAAAAAAAAAAAAAAAAAAAAAAAAAAAAAAAAAAAAAAAAAAAAAAAAAAAAAAAAAAAAAAAAAAAAAAAAAAAAAAAAAAAAAAAAAAAAAAAAAAAAAAAAAAAAAAAAAAAAAB+7ixbtqw8/TDe2Wef3T9u49RTTy1z584tCxYsKNddd131ZwAAAAD4GVu5cmU14KxYsaIcfvjh5ZFHHim33357mT9/frnzzjt36ogzM3kEAAAA+LnwqU99qrv00ku7l770pd3hhx/en8bpVq9ePfnuzknAAQAAAH5urF+/vmzevLlbsmTJ5JVu/HzdunWTr3ZOAg4AAAAQNb4/TXI/kSeeeGL8uNtuu40fe3vssUe3adOmyVc7p9HkEQAAAKBFOXvuwsnTmI/94Nv9Q3OL6O+B86Mf/aj72Mc+tuV3+hM4ixYt6jZu3Njtvvvu49euueaa7hOf+ET3d3/3dztt53ACBwAAAPi5sWjRotHcuXO7tWvXTl7pxs8XL148+WrnJOAAAAAAP1fe/va3d5dcckn36KOPdnfccUe3Zs2abvny5ZPv7pwEHAAAAGBQLrzwwvH9cq699tr+8qn+pXL++edvuX/OjTfeONprr726hQsXdu94xzu6j3zkI93SpUt36tvEuAcOAAAAEFHelbwHzn8P3gOHH3MCBwAAAGDgBBwAAACAgRNwAAAAAAZOwAEAAAAYOAEHAAAAYOAEHAAAAICBE3AAAACAkP5zwDMjT8ABAAAAGDgBBwAAAGDgBBwAAACAgRNwAAAAAAZOwAEAAAAYOAEHAAAAYOAEHAAAACCk9hHhLSNPwAEAAAAYOAEHAAAAYOAEHAAAACCoJEeWgAMAAAAwcAIOAAAAwMAJOAAAAAADJ+AAAAAAIbWPCG8ZeQIOAAAAwMAJOAAAAAADJ+AAAAAADJyAAwAAADBwAg4AAADAwAk4AAAAAAMn4AAAAAAho1Fu5Ak4AAAAAAMn4AAAAAAMnIADAAAAMHACDgAAAMDACTgAAAAAAyfgAAAAAAycgAMAAACE9J8Inhl5Ag4AAADAwAk4AAAAAAMn4AAAAAAMnIADAAAAMHACDgAAAMDACTgAAAAAAyfgAAAAACG1jwhvGXkCDgAAAMDACTgAAAAAAyfgAAAAAAycgAMAAAAwcAIOAAAAwMAJOAAAAAADJ+AAAAAAIbWPCG8ZeQIOAAAAwMAJOAAAAAADJ+AAAAAADJyAAwAAADBwAg4AAADAwAk4AAAAQEjtE6ZaRp6AAwAAADBwAg4AAADAwAk4AAAAQFBJjiwBBwAAAGDgBBwAAACAgRNwAAAAAAZOwAEAAABCah8R3jLyBBwAAACAgRNwAAAAAAZOwAEAAAAG56GHHipHHnlkmTdvXlm4cGFZs2bNVH8OuYADAAAADM6yZcu6Aw88sHv44Ye7G264oTvjjDO6Bx98cGojjnsIAQAAABHlvfP2mTyNuWrzd/qHHbaIr3/96+W1r31tt3nz5m7OnDnj1972trd1r3zlK7srr7xyKluGEzgAAABAyLOfKhVdq9nZ2W402vY3Hnzwwcmz6RN5/wAAAAC2uozp3IbTOFc+c/LmWU0tYp999iknn3xyd/HFF3f33HNPd9xxx3VLlizpvvrVr05lyxBwAAAAgIjSEm1qJiGnqUXcf//9ZeXKlf1j119O1W/Tpk3dn//5n09ly3AJFQAAADA4Bx100Kg/bfPkk0+O7r777tE3v/nN7vWvf/3ku9NHwAEAAAAG57LLLisPPPBAefzxx8uHPvShsn79+u68886b2iuJBBwAAABgcI4//vjxR4e/4hWv6G6//fbuC1/4wuQ708k9cAAAAICIf5V74LA1J3AAAACAkL7AZEaegAMAAAAwcAIOAAAAwMAJOAAAAAADJ+AAAAAADJyAAwAAADBwAg4AAAAQUvuEqZaRJ+AAAAAADJyAAwAAADBwAg4AAADAwAk4AAAAAAMn4AAAAAAMnIADAAAAMHACDgAAABAyGuVGnoADAAAAMHACDgAAAMDACTgAAAAAAyfgAAAAAAycgAMAAAAwcAIOAAAAENJ/oFRm5Ak4AAAAAAMn4AAAAAAMnIADAAAABJXkyBJwAAAAAAZOwAEAAAAYOAEHAAAAYOAEHAAAACCk9hHhLSNPwAEAAAAYOAEHAAAAYOAEHAAAAICBE3AAAAAABk7AAQAAAEJqNyhuGXkCDgAAAMDACTgAAAAAAyfgAAAAAAycgAMAAAAwcAIOAAAAwMAJOAAAAAADJ+AAAAAAIbWPCG8ZeQIOAAAAwMAJOAAAAAADJ+AAAAAADJyAAwAAADBwAg4AAADAwAk4AAAAQEjtE6ZaRp6AAwAAADBwAg4AAADAwAk4AAAAAAMn4AAAAAAMnIADAAAAMHACDgAAABBS+4SplpEn4AAAAAAMnIADAAAAMHACDgAAAMDACTgAAAAAAyfgAAAAAAycgAMAAACE1D5hqmXkCTgAAABAUEmOLAEHAAAAYOAEHAAAAICBE3AAAAAABk7AAQAAABg4AQcAAAAIqX3CVMvIE3AAAACAwVm/fn056qijyvz588tLX/rSct555031x1gJOAAAAMDgLF++vHvFK17Rffe73+2++MUvdn/xF3/R3XDDDVMbcQQcAAAAIKZ2fVTLAtatW9eddtpp3e67797tv//+3Zve9Kbxa9NKwAEAAAAG5/jjj+9uueWWbtOmTd0//MM/jE/hHHfccZPvTh8BBwAAAAipHa5pWcSHP/zh7stf/vL4BM6rX/3q7thjj+2OPvro6J/ZaQg4AAAAQMhlm/7PlrWI/OyzjjjiiO6d73zn+ATOt7/97e5rX/tad+mll07tPXCmtlwBAAAAKeXi3V45eRoziTg7bBH9J1AtWrRoHG/mz58/fu2aa67p/uzP/qz7yle+MpUtwwkcAAAAYFAWLVo0+sVf/MXuox/9aLd58+bun/7pn7pPfvKT3ZIlSyY/MX0EHAAAAGBwbr311u5zn/tct9dee3UHH3xw98u//MvdtddeO7VXErmECgAAAIj4mV9CxbacwAEAAABC+gKTGXkCDgAAAMDACTgAAAAAAyfgAAAAAAycgAMAAAAwcAIOAAAAEFK7QXHLyBNwAAAAAAZOwAEAAAAYOAEHAAAAYOAEHAAAAICBE3AAAACAkNoNiltGnoADAAAAMHACDgAAAMDACTgAAAAAAyfgAAAAAAycgAMAAAAEleTIEnAAAACAkNonTLWMPAEHAAAAYOAEHAAAAICBE3AAAAAABk7AAQAAABg4AQcAAABg4AQcAAAAIKT2CVMtI0/AAQAAABg4AQcAAABg4AQcAAAAgIETcAAAAAAGTsABAAAAQmo3KG4ZeQIOAAAAwMAJOAAAAAADJ+AAAAAADJyAAwAAADBwAg4AAAAQUrtBccvIE3AAAAAABk7AAQAAABg4AQcAAABg4AQcAAAAgIETcAAAAAAGTsABAAAAQkaj3MgTcAAAAAAGTsABAAAAGDgBBwAAAGDgBBwAAACAgRNwAAAAgJD+fsSZkSfgAAAAAAycgAMAAAAwcAIOAAAAEFSSI0vAAQAAABg4AQcAAAAIqd2guGXkCTgAAAAAAyfgAAAAAAycgAMAAAAwcAIOAAAAwMAJOAAAAEBI7QbFLSNPwAEAAAAYOAEHAAAAYOAEHAAAAICBE3AAAAAABk7AAQAAABg4AQcAAAAIqX3CVMvIE3AAAAAABk7AAQAAABg4AQcAAABg4AQcAAAAIKR2f5uWkSfgAAAAAENUnr9Vq1b1j1NJwAEAAACGaKsDPPPmzet+8zd/s399Kgk4AAAAQMhWZSWwrJtvvrm85CUv6ZYuXfqT/JmfawIOAAAAMGirV6/uli9fPvlqOgk4AAAAQNA2t6dpXNyGDRvKXXfd1f32b//25JXpNLVHjwAAAICUrUrMf939ZZNn2/e+73938mws1CIuvfTScscdd3S33377VDcMAQcAAACIKP+tIdrUnPdMyAm1iH333bd84AMf6E477bSpbhguoQIAAAAG6c477yzf+973pj7e9AQcAAAAYJD6mxeffPLJk6+mm0uoAAAAgIh/1UuoeIYTOAAAAEBIX2AyI0/AAQAAABg4AQcAAACIqR2vaRlpAg4AAADAwAk4AAAAQEjtcE3LyBNwAAAAAAZOwAEAAAAYOAEHAAAAYOAEHAAAACCkdn+blpEn4AAAAABBJTmyBBwAAACAgRNwAAAAgJDa5VEtI0/AAQAAABg4AQcAAABg4AQcAAAAgIETcAAAAICQ2v1tWkaegAMAAAAwcAIOAAAAwMAJOAAAAEBI7fKolpEn4AAAAAAMnIADAAAAMHACDgAAAMDACTgAAABAyGiUG3kCDgAAAMDACTgAAAAAAyfgAAAAACH91VCZkSfgAAAAAAycgAMAAAAwcAIOAAAAEFK7PKpl5Ak4AAAAAAMn4AAAAAAMnIADAAAAhIy6khp5Ag4AAAAQU7vBTctIE3AAAACAkFqbaRl5Ag4AAADAwAk4AAAAAAMn4AAAAAAhtcujWkaegAMAAAAwcAIOAAAAwMAJOAAAAEBI7fKolpEn4AAAAAAMnIADAAAAMHACDgAAABAyGuVGnoADAAAAMHACDgAAAMDACTgAAAAAAyfgAAAAACH97WwyI0/AAQAAABg4AQcAAAAIqZ2uaRl5Ag4AAADAwAk4AAAAAAMn4AAAAAAho1Fu5Ak4AAAAAAMn4AAAAAAh/WGazMgTcAAAAAAGTsABAAAAGDgBBwAAAAipXR7VMvIEHAAAAICBE3AAAACAkNpHhLeMPAEHAAAAYOAEHAAAACCkP0yTGXkCDgAAAMDACTgAAABASO10TcvIE3AAAAAABk7AAQAAAAZp9erVZdGiRWW33XYrZ511Vpm8PJUEHAAAACCk9hHhLYv43Oc+Vy644ILu+uuv7zZt2jQ69NBDu9tuu21qI07w7QMAAACmXPkf/27vydOY//R/H+kfmlrEQQcdVFatWtWddtpp2sXTnMABAAAAQvqiklnE2rVru0cffbR7yUteUvbcc89yzjnnTPUlVNH3DwAAAJhuW4WUTzScxnnnMydvnrXDFvGtb32r7Lvvvt2v/dqvdWvWrOl++MMfdieeeGJ3wgkndB/84AensmUIOAAAAEBE+WTyEqp3NF5C9fDDD5cFCxZ0t956a7ds2bLxazfeeOP4fjj33nvvVLYMl1ABAAAAg7JgwYLRnnvuOfnqGaWUbmZmejOGgAMAAAAMzumnn95dccUV/WmcbsOGDd3VV1/dHXfccZPvTh8BBwAAAAipfUR4yyKuuOKK0Wte85ru1a9+dfeGN7yhO/LII7tLLrkk+Fd2HlP7fxwAAABIKZ/aK3cPnLc/1v4x4mzNCRwAAAAgpC8wmZEn4AAAAAAMnIADAAAAMHACDgAAABBSu0Fxy8gTcAAAAICQvsVkRp6AAwAAADBwAg4AAAAQUjtd0zLyBBwAAAAgqJZnWkaWgAMAAACE1G5Q3DLyBBwAAACAgRNwAAAAgJD+ME1m5Ak4AAAAAAMn4AAAAAAhtdM1LSNPwAEAAABCajcobhl5Ag4AAADAwAk4AAAAAAMn4AAAAAAh/dVQmZEn4AAAAAAhtfvbtIw8AQcAAAAI6mtMZmQJOAAAAEBILc20jDwBBwAAAGDgBBwAAAAgpHZ/m5aRJ+AAAAAADJyAAwAAAIT0h2kyI0/AAQAAAEJqcaZl5Ak4AAAAQEytzrSMNAEHAAAACBkl/5En4AAAAAAMnIADAAAAMHACDgAAABAyGuVGnoADAAAAhPQtJjPyBBwAAAAgplZnWkaagAMAAACE1NpMy8gTcAAAAICgWp5pGVkCDgAAABBSu0Fxy8gTcAAAAAAGTsABAAAAQvrDNJmRJ+AAAAAAIbXLo1pGnoADAAAAMHACDgAAABAySv4jT8ABAAAAGDgBBwAAAIjpD9NkRpqAAwAAAITU2kzLyBNwAAAAgJBanGkZeQIOAAAAEDIajVIjT8ABAAAAGDgBBwAAAAjpD9NkRp6AAwAAAISMkv/IE3AAAAAABk7AAQAAAEJql0e1jDwBBwAAAAjqa0xmZAk4AAAAQEjtdE3LyBNwAAAAgJC+xWRGnoADAAAABNXyTMvIEnAAAACAkNrlUS0jT8ABAAAAQvoWkxl5Ag4AAAAQVMszLSNLwAEAAABCapdHtYw8AQcAAABg4AQcAAAAIGQ0GqVGnoADAAAAhPQtJjPyBBwAAAAgqK8xmZEl4AAAAAAhtdM1LSNPwAEAAACC+hqTWbtjjz22PP2wZXvssUf/OLUEHAAAACCkdrqmZVE333xz/9D/5mjjxo2Jv7DzEHAAAACAoHFTSYwsAQcAAAAIqZ2uaVnUe97znm7OnDnlwAMPLLfeeqtLqAAAAABajUaj1CL++q//enzZ1JNPPjlatWpVd8opp3T33nvv1EacRP8CAAAApthWEeW+17568mz7/v3/fmjybCzVIk444YSyZMmS7rLLLpvKluEEDgAAABBy32v337JneswL78c/+5OJnuLZmQg4AAAAQEjfUTJr9fjjj5ezzjqrrF+/fnzaZ/Xq1eW2227rjj/++PH3p5GAAwAAAIQ8/942rWu15557jg499NBu2bJl3bx588rVV1/drVmzpjv44IMDGWjnMrX/xwEAAICU8sCSxZOnMQeuXdc/aBEJTuAAAAAADJyAAwAAAITULo9qGXkCDgAAAMDACTgAAABASO10TcvIE3AAAACAkFqcaRl5Ag4AAADAwAk4AAAAQEjtdE3LyBNwAAAAgJBanGkZeQIOAAAAwMAJOAAAAEBI7XRNy8gTcAAAAICQWpxpGXkCDgAAAMDACTgAAABASO10TcvIE3AAAACAmD7GZEaagAMAAACE9CkmM/IEHAAAACCmdrqmZaQJOAAAAEBI7f42LSNPwAEAAABi+hiTGWkCDgAAABAySv4jT8ABAAAAYvoWkxlpAg4AAAAQUru/TcvIE3AAAACAoOcfrWkdWQIOAAAAEFI7XdMy8gQcAAAAIKaPMZmRJuAAAAAAIaPkP/IEHAAAACBkNDNKjTwBBwAAAAjqY0xmZAk4AAAAQEzt/jYtI03AAQAAAEJqnzDVMvIEHAAAACCmjzGZkSbgAAAAACG10zUtI0/AAQAAAEJqcaZl5Ak4AAAAQFAfYzIjS8ABAAAAQkYzM6mR590DAAAAGDgBBwAAAAipna5pGXnePQAAACCodn+blpEl4AAAAAAx/SdKZUaagAMAAACE1C6Pahl53j0AAAAgpD9Lkxl5Ag4AAAAQ05+myYw07x4AAAAQMhqNUiNPwAEAAACCnn9xVOvIEnAAAACAkNoNiltGnncPAAAACKqdrmkZWQIOAAAAEFNrMy0jTcABAAAAQmqXR7WMPO8eAAAAEFQ7XtMysgQcAAAAIKR2uqZl5Hn3AAAAgJjRKDfSBBwAAAAgZJT8R56AAwAAAMT0l0NlRpp3DwAAAIipXR7VMtIEHAAAACBkNJpJjTzvHgAAABBTO13TMtIEHAAAACCmFmdaRpqAAwAAAITULo9qGXnePQAAACCmdrqmZaQJOAAAAEBI7XRNy8jz7gEAAAAxtdM1LSNNwAEAAABianGmZaQJOAAAAEBI7fKolpHn3QMAAABiaqdrWkaagAMAAACEjEaj1MgTcAAAAICY/nKozBK+853vlHnz5pVjjjmmTF6aSrl3DwAAAJhe/WmazBJWrlzZHXLIIZOvppeAAwAAAISMZnZJLWrNmjVl7ty53Zve9KbJK9NLwAEAAABiaqdrWhZ00UUXdVdeeeXkq+km4AAAAABBfYzJrN3ZZ59dfud3fqd7+ctfPnllusXePQAAAGDabXUz4U3vPn/ybPt2u/ryybOxHbaIv//7vy8rVqzo7rvvvu5FL3pR9+EPf7i74447uttuu21qO4aAAwAAAESUTav+8+RpzG4f/XD/sMMWcf3115dzzjln8tWP7brrrt0Pf/jDqWwZLqECAAAAYmZmcmt0zjnn9JFmy/7oj/6oO+aYY6Y23vTa3z0AAACA3mgmN9KmtlwBAAAAKeWJcz8weRoz/8r/0j9oEQnyFwAAABBTuzyqZaR59wAAAICY0Sg30gQcAAAAIGQ0s0tq5Ak4AAAAQEztdE3LSBNwAAAAgJhanGkZaQIOAAAAENNfDpUZaQIOAAAAEDJK/iNPwAEAAABiapdHtYw0AQcAAACIqV0e1TLSBBwAAAAgpna6pmWkCTgAAABAyGhml9TIE3AAAACAmNrpmpaRJuAAAAAAMbU40zLSBBwAAAAgpr8cKjPSBBwAAAAgqD9NkxlZAg4AAAAQUrtBccvIE3AAAACAmNr9bVpGmoADAAAAxNTiTMtIE3AAAACAmP5yqMxIE3AAAACAmNrpmpaRJuAAAAAAMaOZ3Ejz7gEAAAAxtTjTMtK8ewAAAEBM7fKolpEm4AAAAAAho5ldUiNPwAEAAABiaqdrWkaagAMAAADE9KdpMiNNwAEAAABiaqdrWkaagAMAAAAE9TEmM7IEHAAAACCmdnlUy0gTcAAAAICY2uVRLSNNwAEAAABianGmZaQJOAAAAEDMzExupHn3AAAAgJja6ZqWkSbgAAAAACGjmZnUyPPuAQAAADGjmdxI8+4BAAAAMbXLo1pGmoADAAAAxNRO17SMNO8eAAAAEFM7XdMy0gQcAAAAIKa/IXFmpHn3AAAAgJja6ZqWkSbgAAAAADG1+9u0jDTvHgAAABBTuzyqZaR59wAAAICQMhqlRp6AAwAAAMTUTte0jDTvHgAAABDTn6bJjDQBBwAAAIipxZmWkSbgAAAAADG1y6NaRpp3DwAAAIipna5pGWkCDgAAABBTizMtI03AAQAAAGJql0e1jDTvHgAAABBTO13TMtIEHAAAACCkzMykRp53DwAAAIipna5pGWkCDgAAABBTizMtI03AAQAAAGJmRrmRJuAAAAAAMbXTNS0jTcABAAAAYvobEmdGmncPAAAACCmjUWrkCTgAAABATN9iMiNNwAEAAABiapdHtYw07x4AAAAQ018OlRlpAg4AAAAQUmZmUiPPuwcAAADE1E7XtIw0AQcAAACI6VtMZqQJOAAAAEBI7fKolkXcc8895eijjy7z588v++23X7nhhhvK5FtTScABAAAAYmZGuQX8yZ/8SXfBBRd0TzzxxOiGG27ozj333O6uu+6a2ogTe/cAAACAaVee+No/T57GzP8PL+8fUi3isMMOKyeffHL3+7//+1PZMpzAAQAAAGJqp2taltSfvPnGN77RHXHEEZNXpo+AAwAAAITMf93LtqyMRjvcsz8btXLlyv6SqbJ06dLxJVQHHHBAvgL9nJva/+MAAABASvn+2kcmT2N2X7J3/xBuEf0Njd/2trd1F198cXf66adPZctwAgcAAACIqV0e1bKkgw8+eHTiiSd2X/rSlyavTB8BBwAAAIgZjXJr9Pjjj5d3vetdZf369eNPnfryl79c/vIv/7I79NBDx9+fRgIOAAAAEFJmRqm12nPPPUdvfOMbu5NOOqmbM2dOOfPMM7t3v/vd3VlnndX+R3YyU/t/HAAAAEgpG7/x2ORpzB6v2at/0CISnMABAAAAYmZmciPNuwcAAAAwcAIOAAAAEFJGo9TIE3AAAACAmP6GxJmRJuAAAAAAMX1NyIw0bx8AAAAQUztd0zLSBBwAAAAgpm8xmZEm4AAAAAAhZZQbeQIOAAAAENPXhMxI8/YBAAAAMf1HgmdGmoADAAAAxPQtJjPSBBwAAAAg5tlLoqIjzdsHAAAAxNQuj2oZaQIOAAAAEDKayY08bx8AAAAQ0x+myYw0AQcAAACIqV0e1TLSBBwAAAAgpq8JmZHm7QMAAABC+rM0mZEn4AAAAAAxzz1VExlp3j4AAAAgpHZ7m5aRJ+AAAAAAISU58gQcAAAAIOSpMkqNPAEHAAAACCklN/IEHAAAACBktoxSI0/AAQAAAEJmS27kCTgAAABAyGxy5Ak4AAAAQMjsbG7kCTgAAABAyGw3So08AQcAAAAIqd3fpmXkCTgAAABASC3OtIw8AQcAAAAIearkRp6AAwAAAITU4kzLyBNwAAAAgJD+A6UyI0/AAQAAAEJmyyg18gQcAAAAIKR2eVTLyBNwAAAAgJCnkiNPwAEAAABCaqdrWkaegAMAAACEzJbcyBNwAAAAgJDa5VEtI0/AAQAAAEJ+NJsbeQIOAAAAEPJUN0qNPAEHAAAACKndoLhl5Ak4AAAAQEjtBsUtI0/AAQAAAEJqp2taRp6AAwAAAIT8qORGnoADAAAAhNRO17SMPAEHAAAACOk/ETwz8gQcAAAAIOSp2VFq5Ak4AAAAQMhTyZEn4AAAAAAhP5rNjTwBBwAAAAjpW0xm5Ak4AAAAQMhsyY08AQcAAAAIqX1EeMvIE3AAAACAkFqcaRl5Ag4AAAAQ8tRsbuQJOAAAAEBI32IyI0/AAQAAAEJqNyhuGXkCDgAAABBSuzyqZeQJOAAAAEBI7XRNy8gTcAAAAICQp8ooNfIEHAAAACCkdrqmZeQJOAAAAEBILc60jDwBBwAAAAh5quRGnoADAAAAhNRO17SMPAEHAAAACKl9RHjLIj796U+XQw45pMybN6/8yq/8SvnsZz871QlIwAEAAABCSskt4k//9E+7a665ptu8efPovPPO60455ZTuH//xH4N/Zech4AAAAAAhtcujWhbxmc98ZnTIIYeMP3t8+fLlo1e+8pXdvffeO/7eNBJwAAAAgJDa5VEty3r44YfLhg0bugMOOGDyyvQZlywAAACARludpTn/rh9Onm3f5b++6+TZWLhFHHnkkWW//fbrbrjhhqntGAIOAAAAEFHef+eOo03NR5aOQ06oRZx00knlX/7lX7q/+qu/muqG4RIqAAAAIKR2f5uWRZ1yyinliSeemPp40xNwAAAAgJBanGlZxG/91m+Vxx57rPubv/kbVw89TcABAAAAQmZnR6m12rBhQ+k/RvyOO+7ov+zTz3hXXXVVMAPtPFQsAAAAIKK8+wv/b/I05ur/+OL+QYtIcAIHAAAACCklN/IEHAAAACBkdjY38gQcAAAAIGS2jFIjT8ABAAAAQmqna1pGnoADAAAAhNTub9My8gQcAAAAIKSUUWrkCTgAAABAyOxTuZEn4AAAAAAhtcujWkaegAMAAACEzM6OUiNPwAEAAABCaqdrWkaegAMAAADE9B8JnhlpAg4AAAAQUrs8qmXkCTgAAABASO3yqJaRJ+AAAAAAMbXLo1pGmoADAAAAhMzO5kaegAMAAADE9JdDZUaagAMAAACEzD41So08AQcAAAAIqd2guGXkCTgAAABATB9jMiNNwAEAAABCylO5kSfgAAAAACGllNTIE3AAAACAkDKbG3kCDgAAABDz/HvbtI40AQcAAAAIqZ2uaRl5Ag4AAAAQUmZLauQJOAAAAEDM8y+Nah1pAg4AAAAQUvuI8JaRJ+AAAAAAMbXTNS0jTcABAAAAQkrJjTwBBwAAAIjpb0icGWkCDgAAABBS+4jwlpEn4AAAAAAx/WGazEgTcAAAAICQ2umalpEn4AAAAAAxfYzJjDQBBwAAAIipxZmWkSbgAAAAACG1jwhvGXkCDgAAABBTO13TMtIEHAAAACCmFmdaRpqAAwAAAMT0l0NlRpqAAwAAAMQ8lRxpAg4AAAAQUrtBccvIE3AAAACAmD7GZEaagAMAAADE1G5Q3DLSBBwAAAAgphZnWkaagAMAAADEzJbcSBNwAAAAgJi+xWRGmoADAAAAhNQ+Yapl5Ak4AAAAQMxTJTfSBBwAAAAgpm8xmZEm4AAAAAAxtTjTMtIEHAAAACCm9glTLSNNwAEAAABCymxu5Ak4AAAAQEztdE3LSBNwAAAAgJjaZ4S3jDQBBwAAAIjpW0xmpAk4AAAAQEiZLamRJ+AAAAAAMf0NiTMjTcABAAAAYmZncyNNwAEAAABinn9vm9aRJuAAAAAAMbVPmGoZaQIOAAAAEFK7QXHLyBNwAAAAgJg+xmRGmoADAAAAxNTiTMtIE3AAAACAmNr9bVrWaNmyZf0Pj3f22We3/+JOTMABAAAAYmpxpmWNPvvZz46efhitXLnymRcQcAAAAICg2dncSBNwAAAAgJja6ZqWkSbgAAAAADG1ONMy0gQcAAAAIOR/fXavLSul7HDP/ix5Ag4AAAAQcszxj25ZVyonbZ63LT9LmoADAAAAxNRuUNwy0gQcAAAAIKZyyqZpjS688ML+h8u1117bfexjH+tfKueff377H9gJ9Z+rDgAAANCqHPOWf548jbntf768f9AiEpzAAQAAAGJql0e1jDQBBwAAAIipXR7VMtIEHAAAACCmzOZGmoADAAAAhJRSUiNPwAEAAABi+hiTGWkCDgAAABBTu0Fxy0gTcAAAAICY2umalpEm4AAAAAAxtRsUt4w0AQcAAACIqZ2uaRlpAg4AAAAQU4szLSNNwAEAAABiapdHtYw0AQcAAAAIKWU2NfIEHAAAACCovxwqM7IEHAAAACBmdjY30gQcAAAAIKiPMZmRJeAAAAAAMf39bDIjTcABAAAAYmofEd4y0gQcAAAAIKSUkhp5Ag4AAAAQU57KjTQBBwAAAAjqT9NkRpaAAwAAAMTUblDcMtIEHAAAACCkdn+blpEn4AAAAABB/WmazMgScAAAAICY2uVRLSNNwAEAAABi+suhMiNNwAEAAABiaqdrWkaagAMAAAAE9adpMiNLwAEAAABCSvIfeQIOAAAAEFO7PKplpAk4AAAAQEwtzrSMNAEHAAAACOpjTGZkCTgAAABA0PNvTtw6sgQcAAAAIKbWZlpGmoADAAAABNUuj2oZWQIOAAAAEFNKbqQJOAAAAEBQH2MyI0vAAQAAAIJql0e1jCwBBwAAAIipXR7VMtIEHAAAACCkJP+RJ+AAAAAAMbXTNS0jTcABAAAAgvoYkxlZAg4AAAAQVLtBccvIEnAAAACAmNrlUS0jTcABAAAAgmqna1pGloADAAAAxNRO17SMNAEHAAAACOpjTGZkCTgAAABAUC3OtIwsAQcAAACIqV0e1TLSBBwAAAAgpHSzqZEn4AAAAABB/WmazMgScAAAAICY2uVRLSNNwAEAAACC+suhMiNLwAEAAABiaqdrWkaagAMAAAAE9TEmM7IEHAAAACCodnlUy8gScAAAAICQUkpq5Ak4AAAAQFDtdE3LyBJwAAAAgKDn39umdWQJOAAAAEBMfzlUZqQJOAAAAEBQ7fKolpEl4AAAAAAxtdM1LSNNwAEAAABCSjebGnkCDgAAABDUn6bJjCwBBwAAAIipXR7VMtIEHAAAACDo+Tcnbl3MqaeeWubOnVsWLFhQrrvuuqkuQAIOAAAAEFM7XdOygBUrVpTvfe973be+9a3uE5/4RPf+97+/u/POO2N/ZCcymjwCAAAAtCi/vs8HJ09j7vrORf1DU4uYN29e+fznP98tXbp0/PWKFSvGjzfeeONUtgwncAAAAICY2umaljVav3592bx5c7dkyZLJK934+bp16yZfAQAAAPBC+hLzk2yH7rvvvvHPzs7OlmfdcsstZfHixU2/vzNyAgcAAACI6C9h+km2Q/Pnzx8/btq0afzY27hxY7fbbrtNvpo+Ag4AAAAwKIsWLRrNnTu3W7t27eSVbvx88eLFk68AAAAA+Dd35plnlsMPP7w88sgj5fbbby/z588v0/wpVAAAAACDdMopp5Q5c+aUvffeu1x33XXiDQAAAAAAAAAAAAAAAAAAAAAAAAAAAAAAAAAAOf0nYZUrrrhiq0/E+r3f+72yxx57lCVLlpT777//Z/JpWTOTRwAAAABe2Oiqq66aPH3G3/7t35b999+/27hx4+iMM87oLrjggsl3froEHAAAAICko446arRy5cpR//zggw/udt999/HrP20CDgAAAMDzXH/99ePLpfoddthhTZdFXXjhhd0f/MEfTL4CAAAA+Cm4++67y2g02hIqXmi/+qu/2j9uzzY/v2rVqu3+/LHHHrvVz/b3j+lff9ZDDz1UjjzyyDJv3ryycOHCsmbNmu3+rReybNmyLf+Ns88+u/o3Tj311DJ37tyyYMGCct111+3wv3PVVVdtcw+c3pvf/Obyla98ZYe/DwAAABC2fPnyceB4ofWR52tf+1r/vEkfXu68887t/nwfcG6++ebtfv9Vr3pVee9731s2btxY+nvM9H/vwQcfbP7vP9/KlSurAWfFihXl8MMPL4888ki5/fbby/z581/wf3evFnD62PTFL34x/b8PAAAA4AU9/PDD43Dx9NPt7vTTT+8fm/Rhpj81M/my6oUCzte//vVxMPrBD35QnnXyySeXc889d8vPf/vb3y5vectbtvn9/sRN//uTL7fYXsDpw9CXvvSlyX+llDPPPHO8ybe38bKXvaz/3niT592nPvWpLa/1W7x48fj1nzb3wAEAAIAptmDBglF/75bt2W233bo//MM/nHy1Y6tXr+5P9Uy+2r73vOc93Zw5c8qBBx5Ybr311i3RY3Z2thuNxvcE3sqDDz44edZ1CxcuHO29997dc+9N89a3vrW8+MUv7g444IBtf7li/fr1ZfPmzd2SJUsmr3Tj5+vWrZt8ta3vfve7/d8eb/K8e/vb377ltX5P//74dQAAAICfusmpmW12+eWX949NNmzYUHbZZZfSP05e2qGbbrqpDy/l3nvv3fI7++yzT3nf+95Xvv/9748vTervUfPGN75xm7/5jne8oxx99NHlpJNOKieeeOJ2/5u1Ezj33Xdf/3WZnZ2dnL8p5ZZbbvmZnaABAAAA+Il9+tOfHgeN526//fYLxYxLL720HHHEEaHf6Z1wwgnl4osv3vJ7999//zjY9Cd0DjnkkPFlTaecckr17+69997ll37pl17wv1kLOP0JnKcfxvfZedYf//Eflze84Q0v+Lf+rbiECgAAAOh+4zd+Y3TkkUdOvnrGlVdeOXnW5pZbbmm6fKrmuZdNHXTQQaOvfvWroyeffHJ09913j775zW92r3/96yff/bF3vvOd5YADDugvpepe6AROzaJFi0Zz587t1q5dO3mlGz9fvHjx5CsAAACAAeo/6am/BOrpp+NLk555tU3/6U2TmyFv45hjjikXXnjh+HuPP/54Oeuss8rkBEx/z5yy6667lnvuuWfL71522WXlgQceKP3PfuhDHyr9KZvJt7Y444wzytKlS7e83t8DZ3undLZ3E+P+ZE/0U6gAAAAA/s397u/+bnnRi15U1q1bFwoZfQw57bTTqr/z3IDT+/jHP17233//8ceDv+51r9vqJsa9/hKq/vX+EqqjjjqqfOMb39jq+/2nUL35zW/e5r/VX4r13E+hmvw3t9r555+/5fu9Pvr0/50+El133XVbfQ8AAABgkPpTL5dccomQAQAAAAAAAAAAAAAAAAAAAAAAAAAAAAAAAAAAAAAAAAAAAAAAAAAAAAAAAAAAAAAAAAAAAAAAAAAAAAAAAAAAAAAAAAAAAAD/arru/wObL+DJXKP+OwAAAABJRU5ErkJggg==;clipPath=inset(4.55% 1.67% 3.64% 83.33%);" vertex="1" parent="1">
          <mxGeometry x="1200" y="180" width="158.17" height="710" as="geometry" />
        </mxCell>
      </root>
    </mxGraphModel>
  </diagram>
</mxfile>
